Coordinates
version=1
nRows=12
nColumns=42
inDegrees=yes

Units are S.I. units (second, meters, Newtons, ...)
If the header above contains a line with 'inDegrees', this indicates whether rotational values are in degrees (yes) or radians (no).

endheader
time	pelvis_tilt	pelvis_list	pelvis_rotation	pelvis_tx	pelvis_ty	pelvis_tz	hip_flexion_r	hip_adduction_r	hip_rotation_r	knee_angle_r	knee_adduction_r	knee_angle_r_beta	ankle_angle_r	subtalar_angle_r	mtp_angle_r	hip_flexion_l	hip_adduction_l	hip_rotation_l	knee_angle_l	knee_adduction_l	knee_angle_l_beta	ankle_angle_l	subtalar_angle_l	mtp_angle_l	lumbar_extension	lumbar_bending	lumbar_rotation	arm_flex_r	arm_add_r	arm_rot_r	elbow_flex_r	pro_sup_r	wrist_flex_r	wrist_dev_r	arm_flex_l	arm_add_l	arm_rot_l	elbow_flex_l	pro_sup_l	wrist_flex_l	wrist_dev_l
      2.94000000	     -3.52212598	     -3.55936912	     -2.97034767	      1.13015475	      0.87197897	     -0.14068544	     -5.92237495	     -0.34738716	     -2.91873676	      8.27754416	     11.71266399	      0.14447040	     17.38772288	      3.81148456	     -7.50044957	     26.91267290	    -16.45641135	     -4.24205123	     16.13185410	     18.68272462	      0.28155397	      0.79587128	     -8.73525271	     -7.50044957	    -13.30392290	      6.64557222	      2.99553650	     -6.94767754	    -14.43053308	     -3.13642022	     19.51126977	     90.00000001	      0.00000000	      0.00000000	    -13.51232302	     -6.44093638	      6.18135818	     22.52078138	     90.00000001	      0.00000000	      0.00000000
      2.95000000	     -3.54958076	     -3.79959364	     -3.19799391	      1.14044173	      0.87003833	     -0.14079942	     -6.55180117	     -0.15062132	     -2.95523045	      8.49972041	     11.71305264	      0.14834811	     17.78835514	      3.87331587	     -7.50044158	     26.95886553	    -16.58956760	     -5.32784567	     13.70178453	     18.19423801	      0.23914125	      0.81086791	     -7.59758211	     -7.50044158	    -13.31060306	      6.73780663	      3.19147957	     -7.00998537	    -14.50885655	     -3.06209955	     19.47153448	     90.00000001	      0.00000000	      0.00000000	    -13.63279961	     -6.29638321	      6.21953258	     22.61702633	     90.00000001	      0.00000000	      0.00000000
      2.96000000	     -3.25178623	     -3.83334331	     -3.42216441	      1.15111936	      0.86854535	     -0.14124492	     -7.60729140	     -0.34819843	     -3.02949554	      8.62727706	     11.94630289	      0.15057439	     18.13911001	      4.13007769	     -7.50042313	     26.52010744	    -16.42727607	     -6.57355616	     11.34085174	     17.65861443	      0.19793520	      1.01303466	     -6.57131620	     -7.50042313	    -13.66065513	      6.59313755	      3.34138330	     -7.02873944	    -14.58141184	     -2.98741010	     19.47332183	     90.00000001	      0.00000000	      0.00000000	    -13.74370965	     -6.17735195	      6.30272445	     22.75747029	     90.00000001	      0.00000000	      0.00000000
      2.97000000	     -3.40451665	     -4.14194156	     -3.65003535	      1.16156172	      0.86640784	     -0.14141605	     -8.08745343	     -0.07572155	     -3.01991376	      8.91582213	     11.89535171	      0.15561045	     18.46545511	      4.22281581	     -7.50041479	     26.78440213	    -16.64999638	     -7.62311168	      9.53052156	     17.28341596	      0.16633898	      1.20109465	     -5.58098960	     -7.50041479	    -13.52704166	      6.74968024	      3.54399805	     -7.10518253	    -14.64171898	     -2.94252512	     19.44285173	     90.00000001	      0.00000000	      0.00000000	    -13.89550503	     -6.05459569	      6.34748994	     22.91545323	     90.00000001	      0.00000000	      0.00000000
      2.98000000	     -3.35287166	     -4.28901875	     -3.89948654	      1.17241891	      0.86458762	     -0.14171959	     -8.84102925	     -0.06682899	     -3.04183085	      9.15087587	     11.91121883	      0.15971291	     18.74280641	      4.44453317	     -7.50040460	     26.74825632	    -16.67756248	     -8.80040453	      7.97124095	     16.92139469	      0.13912440	      1.62119000	     -4.66005204	     -7.50040460	    -13.59270526	      6.69810310	      3.75939763	     -7.20320791	    -14.66679332	     -2.90047461	     19.43715357	     90.00000001	      0.00000000	      0.00000000	    -14.03383185	     -5.97304519	      6.42110402	     23.08276269	     90.00000001	      0.00000000	      0.00000000
      2.99000000	     -3.44274507	     -4.45811658	     -4.11815262	      1.18331971	      0.86258890	     -0.14197975	     -9.43983649	      0.01841783	     -2.96481645	      9.37909585	     11.83365431	      0.16369610	     18.95220140	      4.62182747	     -7.50039885	     26.96908132	    -16.75804880	     -9.78063631	      6.87764260	     16.66972478	      0.12003751	      2.03362337	     -4.11047607	     -7.50039885	    -13.48240367	      6.67031808	      3.93488269	     -7.31572232	    -14.66373399	     -2.87407182	     19.41066842	     90.00000001	      0.00000000	      0.00000000	    -14.19969509	     -5.92025465	      6.46686183	     23.28571679	     90.00000001	      0.00000000	      0.00000000
      3.00000000	     -3.45040121	     -4.57738692	     -4.36321213	      1.19437204	      0.86077740	     -0.14246624	    -10.11516621	     -0.06980138	     -2.83960410	      9.64372480	     11.89423308	      0.16831475	     19.12611002	      4.83591822	     -7.50039344	     27.10064009	    -16.77207667	    -10.65022089	      6.15783582	     16.44445024	      0.10747451	      2.49356720	     -3.73533128	     -7.50039344	    -13.47256078	      6.59192219	      4.12093387	     -7.41647032	    -14.66806074	     -2.85763360	     19.40986602	     90.00000001	      0.00000000	      0.00000000	    -14.34888862	     -5.83290599	      6.53709587	     23.49384115	     90.00000001	      0.00000000	      0.00000000
      3.01000000	     -3.53907446	     -4.74658936	     -4.36749241	      1.20544514	      0.85887058	     -0.14317855	    -10.69729270	     -0.05552990	     -2.73978918	      9.95775791	     11.95127997	      0.17379566	     19.11344535	      4.90042385	     -7.50039138	     27.58246755	    -16.76299598	    -10.96196935	      6.09237724	     16.28302212	      0.10633204	      2.58641629	     -3.68258315	     -7.50039138	    -13.35195367	      6.59149463	      4.11163969	     -7.56927335	    -14.65221095	     -2.85899382	     19.45646587	     90.00000001	      0.00000000	      0.00000000	    -14.43501211	     -5.81326617	      6.54084044	     23.59469838	     90.00000001	      0.00000000	      0.00000000
      3.02000000	     -3.46627314	     -4.60347490	     -4.88586449	      1.21694619	      0.85744613	     -0.14368826	    -11.39952027	     -0.57188554	     -2.24213677	     10.26467266	     12.04063635	      0.17915233	     19.29224357	      5.25234792	     -7.50038624	     27.38808379	    -16.59961561	    -11.70231633	      5.82218780	     16.12218644	      0.10161635	      3.18741635	     -3.70906773	     -7.50038624	    -13.40820851	      6.18053970	      4.49348093	     -7.62572399	    -14.66189087	     -2.85171551	     19.38777149	     90.00000001	      0.00000000	      0.00000000	    -14.64557462	     -5.77907759	      6.66480484	     23.98226974	     90.00000001	      0.00000000	      0.00000000
      3.03000000	     -3.39099784	     -4.45338023	     -5.08445230	      1.22838237	      0.85610181	     -0.14461519	    -12.06421548	     -1.09792390	     -1.91329987	     10.69409826	     12.24291504	      0.18664723	     19.27335455	      5.50601658	     -7.50038031	     27.49251945	    -16.31793400	    -11.88265703	      6.23568915	     16.00199045	      0.10883331	      3.01543829	     -3.71532567	     -7.50038031	    -13.45933278	      5.79826315	      4.61090827	     -7.74570016	    -14.61391863	     -2.86931819	     19.42642644	     90.00000001	      0.00000000	      0.00000000	    -14.73232477	     -5.78357583	      6.78382255	     24.18405297	     90.00000001	      0.00000000	      0.00000000
      3.04000000	     -3.35574067	     -4.17594295	     -5.31334618	      1.24007524	      0.85486309	     -0.14559883	    -12.64086494	     -1.75740227	     -1.56705555	     11.18891558	     12.37261543	      0.19528342	     19.18161239	      5.74712511	     -7.50037214	     27.59255048	    -15.93313895	    -11.85964197	      6.89435131	     15.93270807	      0.12032913	      2.65149191	     -4.02555053	     -7.50037214	    -13.41571351	      5.27410075	      4.72597542	     -7.86749661	    -14.53561923	     -2.91484253	     19.38761541	     90.00000001	      0.00000000	      0.00000000	    -14.84282960	     -5.82617075	      6.93241264	     24.41121939	     90.00000001	      0.00000000	      0.00000000
      3.05000000	     -3.36630519	     -4.04538958	     -5.50927724	      1.25176408	      0.85375135	     -0.14647061	    -13.11299791	     -2.17855252	     -1.06129976	     11.76083789	     12.38786798	      0.20526534	     18.97212253	      5.88215381	     -7.50036885	     27.72261762	    -15.75236461	    -11.12753175	      7.64718716	     16.03414721	      0.13346859	      2.25291027	     -3.95370531	     -7.50036885	    -13.35360963	      4.90095604	      4.84209529	     -8.02260556	    -14.44540408	     -2.92210208	     19.42898551	     90.00000001	      0.00000000	      0.00000000	    -14.92044106	     -5.85830467	      6.94584667	     24.54143700	     90.00000001	      0.00000000	      0.00000000
